<svg width="613" height="582" viewBox="0 0 613 582" fill="none" xmlns="http://www.w3.org/2000/svg">
<path d="M305.477 16.5176L537.235 143.557V397.635L305.477 524.675L73.7179 397.635V143.557L305.477 16.5176Z" fill="black"/>
<path d="M51.0632 151.422L306.5 11.4038L561.937 151.422V430.578L306.5 570.596L51.0632 430.578V151.422Z" stroke="black" stroke-width="20"/>
<path d="M200.717 250.925C200.717 253.55 199.78 255.753 197.905 257.534C196.123 259.409 193.92 260.347 191.295 260.347H135.045C133.264 260.441 131.764 260.863 130.545 261.613C129.42 262.269 128.577 263.066 128.014 264.003C127.452 264.847 127.17 265.738 127.17 266.675C127.17 267.613 127.452 268.55 128.014 269.488C128.577 270.331 129.42 271.128 130.545 271.878C131.764 272.534 133.264 272.909 135.045 273.003H174.983C181.545 273.191 186.936 274.738 191.155 277.644C195.467 280.456 198.514 283.738 200.295 287.488C202.17 291.144 203.108 294.894 203.108 298.738C203.108 302.488 202.17 306.238 200.295 309.988C198.42 313.644 195.373 316.925 191.155 319.831C186.936 322.644 181.545 324.05 174.983 324.05H174.139C173.577 324.144 173.014 324.191 172.452 324.191H119.295C116.67 324.191 114.42 323.3 112.545 321.519C110.764 319.644 109.873 317.394 109.873 314.769C109.873 312.144 110.811 309.941 112.686 308.159C114.467 306.284 116.67 305.347 119.295 305.347H175.827C177.608 305.441 179.061 305.113 180.186 304.363C181.405 303.613 182.295 302.769 182.858 301.831C183.42 300.8 183.702 299.769 183.702 298.738C183.702 298.081 183.42 297.191 182.858 296.066C182.295 294.847 181.405 293.863 180.186 293.113C179.061 292.363 177.608 291.941 175.827 291.847H135.889C129.327 291.659 123.889 290.159 119.577 287.347C115.358 284.534 112.311 281.347 110.436 277.784C108.655 274.128 107.764 270.425 107.764 266.675C107.764 263.019 108.702 259.409 110.577 255.847C112.452 252.191 115.498 248.956 119.717 246.144C123.936 243.331 129.327 241.831 135.889 241.644H136.733C137.295 241.55 137.858 241.503 138.42 241.503H191.295C193.92 241.503 196.123 242.441 197.905 244.316C199.78 246.097 200.717 248.3 200.717 250.925ZM228.561 239.253C231.092 239.347 233.248 240.284 235.03 242.066C236.811 243.753 237.748 245.863 237.842 248.394V317.3C237.28 322.925 234.186 325.972 228.561 326.441C225.936 326.441 223.639 325.597 221.67 323.909C219.795 322.128 218.858 319.925 218.858 317.3V248.394C218.952 245.769 219.936 243.613 221.811 241.925C223.686 240.144 225.936 239.253 228.561 239.253ZM246.42 278.488C249.139 274.081 254.342 270.847 262.03 268.784L298.17 259.081C300.702 258.331 303.092 258.566 305.342 259.784C307.686 260.909 309.233 262.738 309.983 265.269C310.827 267.706 310.639 270.097 309.42 272.441C308.295 274.691 306.467 276.238 303.936 277.081L265.405 287.066C262.686 288.097 261.373 289.878 261.467 292.409C261.373 294.941 262.686 296.722 265.405 297.753L303.936 307.738C306.467 308.581 308.295 310.175 309.42 312.519C310.639 314.769 310.827 317.113 309.983 319.55C309.233 322.081 307.686 323.909 305.342 325.034C303.092 326.253 300.702 326.488 298.17 325.738L262.03 316.034C254.248 313.878 248.998 310.597 246.28 306.191C243.655 301.784 242.342 297.191 242.342 292.409C242.342 287.628 243.702 282.988 246.42 278.488ZM334.873 259.222C337.405 259.316 339.561 260.253 341.342 262.034C343.123 263.722 344.061 265.831 344.155 268.363V317.019C343.592 322.644 340.498 325.691 334.873 326.159C332.248 326.159 329.952 325.316 327.983 323.628C326.108 321.847 325.17 319.644 325.17 317.019V268.363C325.264 265.738 326.248 263.581 328.123 261.894C329.998 260.113 332.248 259.222 334.873 259.222ZM323.061 240.941C323.061 238.316 324.186 236.066 326.436 234.191C328.686 232.316 331.405 231.378 334.592 231.378C337.78 231.378 340.498 232.316 342.748 234.191C344.998 236.066 346.123 238.316 346.123 240.941C346.123 243.659 344.998 245.956 342.748 247.831C340.498 249.706 337.78 250.644 334.592 250.644C331.405 250.644 328.686 249.706 326.436 247.831C324.186 245.956 323.061 243.659 323.061 240.941ZM371.014 239.253C373.545 239.347 375.702 240.284 377.483 242.066C379.264 243.753 380.202 245.863 380.295 248.394V317.3C379.733 322.925 376.639 325.972 371.014 326.441C368.389 326.441 366.092 325.597 364.123 323.909C362.248 322.128 361.311 319.925 361.311 317.3V248.394C361.405 245.769 362.389 243.613 364.264 241.925C366.139 240.144 368.389 239.253 371.014 239.253ZM407.858 239.253C410.389 239.347 412.545 240.284 414.327 242.066C416.108 243.753 417.045 245.863 417.139 248.394V317.3C416.577 322.925 413.483 325.972 407.858 326.441C405.233 326.441 402.936 325.597 400.967 323.909C399.092 322.128 398.155 319.925 398.155 317.3V248.394C398.248 245.769 399.233 243.613 401.108 241.925C402.983 240.144 405.233 239.253 407.858 239.253ZM524.295 268.784C524.295 271.128 523.358 273.097 521.483 274.691C519.702 276.191 517.498 276.941 514.873 276.941H455.389C454.17 276.941 453.186 277.175 452.436 277.644C451.686 278.113 451.123 278.628 450.748 279.191C450.373 279.659 450.186 280.081 450.186 280.456C450.186 280.925 450.373 281.441 450.748 282.003C451.123 282.472 451.686 282.941 452.436 283.409C453.186 283.784 454.17 284.019 455.389 284.113H501.373C507.28 284.206 512.155 285.378 515.998 287.628C519.842 289.784 522.561 292.363 524.155 295.363C525.842 298.269 526.686 301.222 526.686 304.222C526.686 307.128 525.842 310.081 524.155 313.081C522.467 315.988 519.702 318.566 515.858 320.816C512.108 322.972 507.28 324.05 501.373 324.05C500.342 324.144 499.592 324.191 499.123 324.191H444.561C441.936 324.191 439.686 323.441 437.811 321.941C436.03 320.347 435.139 318.425 435.139 316.175C435.139 313.831 436.077 311.863 437.952 310.269C439.733 308.769 441.936 308.019 444.561 308.019H502.498C503.905 308.113 505.03 307.925 505.873 307.456C506.811 306.988 507.514 306.472 507.983 305.909C508.452 305.347 508.686 304.784 508.686 304.222C508.686 303.941 508.452 303.472 507.983 302.816C507.514 302.066 506.811 301.503 505.873 301.128C505.03 300.659 503.905 300.378 502.498 300.284H456.373C450.936 300.191 446.436 299.066 442.873 296.909C439.311 294.659 436.78 292.081 435.28 289.175C433.78 286.269 433.03 283.363 433.03 280.456C433.03 277.55 433.78 274.691 435.28 271.878C436.873 268.972 439.405 266.488 442.873 264.425C446.436 262.269 450.936 261.097 456.373 260.909C457.311 260.816 458.014 260.769 458.483 260.769H514.873C517.498 260.769 519.702 261.566 521.483 263.159C523.358 264.659 524.295 266.534 524.295 268.784Z" fill="white"/>
</svg>
