<svg width="754" height="264" viewBox="0 0 754 264" fill="none" xmlns="http://www.w3.org/2000/svg">
<g filter="url(#filter0_d_59_42)">
<path d="M10.592 145L55.376 43.48H65.744L111.248 145H98.864L86.192 116.056L91.52 119.08H29.456L35.216 116.056L22.832 145H10.592ZM60.416 57.16L37.088 111.88L33.632 109.288H87.2L84.608 111.88L60.704 57.16H60.416ZM161.555 146.296C155.027 146.296 149.411 144.664 144.707 141.4C140.003 138.04 136.835 133.48 135.203 127.72H136.787V145H125.267V39.016H136.931V89.56H135.203C136.835 83.992 140.003 79.576 144.707 76.312C149.411 73.048 155.027 71.416 161.555 71.416C168.083 71.416 173.699 72.952 178.403 76.024C183.203 79 186.899 83.272 189.491 88.84C192.179 94.408 193.523 101.08 193.523 108.856C193.523 116.632 192.179 123.304 189.491 128.872C186.803 134.44 183.059 138.76 178.259 141.832C173.555 144.808 167.987 146.296 161.555 146.296ZM159.107 136.792C165.923 136.792 171.395 134.44 175.523 129.736C179.651 125.032 181.715 118.072 181.715 108.856C181.715 99.64 179.651 92.68 175.523 87.976C171.395 83.176 165.923 80.776 159.107 80.776C152.291 80.776 146.819 83.176 142.691 87.976C138.659 92.68 136.643 99.64 136.643 108.856C136.643 117.976 138.659 124.936 142.691 129.736C146.819 134.44 152.291 136.792 159.107 136.792ZM241.274 146.296C234.362 146.296 228.314 144.808 223.13 141.832C218.042 138.76 214.106 134.44 211.322 128.872C208.538 123.208 207.146 116.536 207.146 108.856C207.146 101.08 208.538 94.408 211.322 88.84C214.106 83.272 218.042 79 223.13 76.024C228.314 72.952 234.362 71.416 241.274 71.416C248.282 71.416 254.33 72.952 259.418 76.024C264.602 79 268.586 83.272 271.37 88.84C274.25 94.408 275.69 101.08 275.69 108.856C275.69 116.536 274.25 123.208 271.37 128.872C268.586 134.44 264.602 138.76 259.418 141.832C254.33 144.808 248.282 146.296 241.274 146.296ZM241.274 136.792C248.186 136.792 253.658 134.44 257.69 129.736C261.722 124.936 263.738 117.976 263.738 108.856C263.738 99.64 261.674 92.68 257.546 87.976C253.514 83.176 248.09 80.776 241.274 80.776C234.458 80.776 229.034 83.176 225.002 87.976C220.97 92.68 218.954 99.64 218.954 108.856C218.954 117.976 220.97 124.936 225.002 129.736C229.034 134.44 234.458 136.792 241.274 136.792ZM319.364 146.296C310.82 146.296 304.34 143.944 299.924 139.24C295.604 134.536 293.444 127.336 293.444 117.64V72.712H305.108V117.352C305.108 123.976 306.452 128.872 309.14 132.04C311.828 135.112 316.004 136.648 321.668 136.648C328.004 136.648 333.092 134.584 336.932 130.456C340.772 126.328 342.692 120.808 342.692 113.896V72.712H354.356V145H342.98V128.728H344.852C342.836 134.296 339.572 138.616 335.06 141.688C330.644 144.76 325.412 146.296 319.364 146.296ZM402.617 146.296C395.513 146.296 390.089 144.28 386.345 140.248C382.601 136.12 380.729 129.928 380.729 121.672V81.784H366.617V72.712H380.729V52.984L392.393 49.672V72.712H413.129V81.784H392.393V120.376C392.393 126.136 393.353 130.264 395.273 132.76C397.289 135.16 400.265 136.36 404.201 136.36C406.025 136.36 407.657 136.216 409.097 135.928C410.537 135.544 411.833 135.112 412.985 134.632V144.424C411.641 145 410.009 145.432 408.089 145.72C406.265 146.104 404.441 146.296 402.617 146.296ZM503.863 145V43.48H514.231L554.983 135.496H550.807L591.559 43.48H601.927V145H590.983V58.888H595.303L556.855 145H548.935L510.343 58.888H514.663V145H503.863ZM658.144 146.296C646.816 146.296 637.888 143.032 631.36 136.504C624.832 129.88 621.568 120.712 621.568 109C621.568 101.416 623.008 94.84 625.888 89.272C628.768 83.608 632.8 79.24 637.984 76.168C643.168 73 649.12 71.416 655.84 71.416C662.464 71.416 668.032 72.808 672.544 75.592C677.056 78.376 680.512 82.36 682.912 87.544C685.312 92.632 686.512 98.68 686.512 105.688V110.008H630.496V102.664H678.88L676.432 104.536C676.432 96.856 674.704 90.856 671.248 86.536C667.792 82.216 662.656 80.056 655.84 80.056C648.64 80.056 643.024 82.6 638.992 87.688C634.96 92.68 632.944 99.448 632.944 107.992V109.288C632.944 118.312 635.152 125.176 639.568 129.88C644.08 134.488 650.368 136.792 658.432 136.792C662.752 136.792 666.784 136.168 670.528 134.92C674.368 133.576 678.016 131.416 681.472 128.44L685.504 136.648C682.336 139.72 678.304 142.12 673.408 143.848C668.608 145.48 663.52 146.296 658.144 146.296Z" fill="#F8EEEE"/>
<path d="M10.592 145L9.67707 144.596L9.05789 146H10.592V145ZM55.376 43.48V42.48H54.7242L54.4611 43.0764L55.376 43.48ZM65.744 43.48L66.6565 43.071L66.3916 42.48H65.744V43.48ZM111.248 145V146H112.792L112.161 144.591L111.248 145ZM98.864 145L97.948 145.401L98.2102 146H98.864V145ZM86.192 116.056L86.6856 115.186L84.0695 113.702L85.276 116.457L86.192 116.056ZM91.52 119.08V120.08H95.3078L92.0136 118.21L91.52 119.08ZM29.456 119.08L28.9912 118.195L29.456 120.08V119.08ZM35.216 116.056L36.1354 116.449L37.242 113.863L34.7512 115.171L35.216 116.056ZM22.832 145V146H23.4918L23.7514 145.393L22.832 145ZM60.416 57.16V56.16H59.7552L59.4961 56.7678L60.416 57.16ZM37.088 111.88L36.488 112.68L37.5079 113.445L38.0079 112.272L37.088 111.88ZM33.632 109.288V108.288H30.632L33.032 110.088L33.632 109.288ZM87.2 109.288L87.9071 109.995L89.6142 108.288H87.2V109.288ZM84.608 111.88L83.6916 112.28L84.2785 113.624L85.3151 112.587L84.608 111.88ZM60.704 57.16L61.6204 56.7597L61.3584 56.16H60.704V57.16ZM11.5069 145.404L56.2909 43.8836L54.4611 43.0764L9.67707 144.596L11.5069 145.404ZM55.376 44.48H65.744V42.48H55.376V44.48ZM64.8315 43.889L110.335 145.409L112.161 144.591L66.6565 43.071L64.8315 43.889ZM111.248 144H98.864V146H111.248V144ZM99.7801 144.599L87.1081 115.655L85.276 116.457L97.948 145.401L99.7801 144.599ZM85.6984 116.926L91.0264 119.95L92.0136 118.21L86.6856 115.186L85.6984 116.926ZM91.52 118.08H29.456V120.08H91.52V118.08ZM29.9208 119.965L35.6808 116.941L34.7512 115.171L28.9912 118.195L29.9208 119.965ZM34.2966 115.663L21.9126 144.607L23.7514 145.393L36.1354 116.449L34.2966 115.663ZM22.832 144H10.592V146H22.832V144ZM59.4961 56.7678L36.1681 111.488L38.0079 112.272L61.3359 57.5522L59.4961 56.7678ZM37.688 111.08L34.232 108.488L33.032 110.088L36.488 112.68L37.688 111.08ZM33.632 110.288H87.2V108.288H33.632V110.288ZM86.4929 108.581L83.9009 111.173L85.3151 112.587L87.9071 109.995L86.4929 108.581ZM85.5244 111.48L61.6204 56.7597L59.7876 57.5603L83.6916 112.28L85.5244 111.48ZM60.704 56.16H60.416V58.16H60.704V56.16ZM144.707 141.4L144.125 142.214L144.137 142.222L144.707 141.4ZM135.203 127.72V126.72H133.88L134.24 127.993L135.203 127.72ZM136.787 127.72H137.787V126.72H136.787V127.72ZM136.787 145V146H137.787V145H136.787ZM125.267 145H124.267V146H125.267V145ZM125.267 39.016V38.016H124.267V39.016H125.267ZM136.931 39.016H137.931V38.016H136.931V39.016ZM136.931 89.56V90.56H137.931V89.56H136.931ZM135.203 89.56L134.243 89.2787L133.867 90.56H135.203V89.56ZM144.707 76.312L145.277 77.1336L145.277 77.1336L144.707 76.312ZM178.403 76.024L177.856 76.8613L177.866 76.8677L177.876 76.8739L178.403 76.024ZM189.491 88.84L188.584 89.2621L188.59 89.2747L189.491 88.84ZM189.491 128.872L190.391 129.307L190.391 129.307L189.491 128.872ZM178.259 141.832L178.793 142.677L178.798 142.674L178.259 141.832ZM175.523 129.736L176.274 130.396L176.274 130.396L175.523 129.736ZM175.523 87.976L174.764 88.6281L174.771 88.6356L175.523 87.976ZM142.691 87.976L141.932 87.324L141.931 87.3252L142.691 87.976ZM142.691 129.736L141.925 130.379L141.932 130.387L141.939 130.396L142.691 129.736ZM161.555 145.296C155.201 145.296 149.791 143.71 145.277 140.578L144.137 142.222C149.031 145.618 154.852 147.296 161.555 147.296V145.296ZM145.288 140.586C140.776 137.363 137.737 132.997 136.165 127.447L134.24 127.993C135.932 133.963 139.23 138.717 144.125 142.214L145.288 140.586ZM135.203 128.72H136.787V126.72H135.203V128.72ZM135.787 127.72V145H137.787V127.72H135.787ZM136.787 144H125.267V146H136.787V144ZM126.267 145V39.016H124.267V145H126.267ZM125.267 40.016H136.931V38.016H125.267V40.016ZM135.931 39.016V89.56H137.931V39.016H135.931ZM136.931 88.56H135.203V90.56H136.931V88.56ZM136.162 89.8413C137.731 84.4894 140.763 80.2654 145.277 77.1336L144.137 75.4904C139.242 78.8866 135.938 83.4946 134.243 89.2787L136.162 89.8413ZM145.277 77.1336C149.791 74.0015 155.201 72.416 161.555 72.416V70.416C154.852 70.416 149.031 72.0945 144.137 75.4904L145.277 77.1336ZM161.555 72.416C167.921 72.416 173.339 73.9118 177.856 76.8613L178.949 75.1867C174.058 71.9922 168.245 70.416 161.555 70.416V72.416ZM177.876 76.8739C182.496 79.7383 186.067 83.8545 188.584 89.262L190.397 88.418C187.731 82.6895 183.91 78.2617 178.93 75.1741L177.876 76.8739ZM188.59 89.2747C191.198 94.6769 192.523 101.193 192.523 108.856H194.523C194.523 100.967 193.159 94.1391 190.391 88.4052L188.59 89.2747ZM192.523 108.856C192.523 116.519 191.198 123.035 188.59 128.437L190.391 129.307C193.159 123.573 194.523 116.745 194.523 108.856H192.523ZM188.59 128.437C185.975 133.853 182.35 138.026 177.72 140.99L178.798 142.674C183.767 139.494 187.63 135.027 190.391 129.307L188.59 128.437ZM177.724 140.987C173.204 143.847 167.827 145.296 161.555 145.296V147.296C168.146 147.296 173.906 145.769 178.793 142.677L177.724 140.987ZM159.107 137.792C166.182 137.792 171.938 135.337 176.274 130.396L174.771 129.076C170.851 133.543 165.664 135.792 159.107 135.792V137.792ZM176.274 130.396C180.623 125.44 182.715 118.203 182.715 108.856H180.715C180.715 117.941 178.678 124.624 174.771 129.076L176.274 130.396ZM182.715 108.856C182.715 99.5093 180.623 92.2724 176.274 87.3164L174.771 88.6356C178.678 93.0876 180.715 99.7707 180.715 108.856H182.715ZM176.281 87.324C171.947 82.2846 166.189 79.776 159.107 79.776V81.776C165.657 81.776 170.842 84.0674 174.764 88.628L176.281 87.324ZM159.107 79.776C152.025 79.776 146.266 82.2846 141.932 87.324L143.449 88.628C147.371 84.0674 152.557 81.776 159.107 81.776V79.776ZM141.931 87.3252C137.684 92.2809 135.643 99.5141 135.643 108.856H137.643C137.643 99.7659 139.634 93.0791 143.45 88.6268L141.931 87.3252ZM135.643 108.856C135.643 118.107 137.686 125.333 141.925 130.379L143.456 129.093C139.631 124.539 137.643 117.845 137.643 108.856H135.643ZM141.939 130.396C146.275 135.337 152.032 137.792 159.107 137.792V135.792C152.55 135.792 147.362 133.543 143.442 129.076L141.939 130.396ZM223.13 141.832L222.614 142.688L222.623 142.694L222.633 142.699L223.13 141.832ZM211.322 128.872L210.425 129.313L210.428 129.319L211.322 128.872ZM211.322 88.84L212.217 89.2872L212.217 89.2872L211.322 88.84ZM223.13 76.024L223.635 76.8872L223.64 76.8843L223.13 76.024ZM259.418 76.024L258.902 76.8801L258.911 76.8858L258.921 76.8912L259.418 76.024ZM271.37 88.84L270.476 89.2873L270.482 89.2994L271.37 88.84ZM271.37 128.872L270.479 128.419L270.476 128.425L271.37 128.872ZM259.418 141.832L259.923 142.695L259.928 142.692L259.418 141.832ZM257.69 129.736L258.45 130.387L258.456 130.379L257.69 129.736ZM257.546 87.976L256.781 88.6192L256.788 88.6275L256.795 88.6356L257.546 87.976ZM225.002 87.976L225.762 88.6268L225.768 88.6192L225.002 87.976ZM225.002 129.736L224.237 130.379L224.243 130.387L225.002 129.736ZM241.274 145.296C234.509 145.296 228.638 143.841 223.628 140.965L222.633 142.699C227.99 145.775 234.215 147.296 241.274 147.296V145.296ZM223.647 140.976C218.729 138.007 214.92 133.832 212.217 128.425L210.428 129.319C213.292 135.048 217.356 139.513 222.614 142.688L223.647 140.976ZM212.22 128.431C209.516 122.931 208.146 116.416 208.146 108.856H206.146C206.146 116.656 207.56 123.485 210.425 129.313L212.22 128.431ZM208.146 108.856C208.146 101.197 209.517 94.6861 212.217 89.2872L210.428 88.3928C207.559 94.1299 206.146 100.963 206.146 108.856H208.146ZM212.217 89.2872C214.919 83.8825 218.724 79.7596 223.635 76.8872L222.625 75.1608C217.36 78.2404 213.294 82.6615 210.428 88.3928L212.217 89.2872ZM223.64 76.8843C228.648 73.9165 234.515 72.416 241.274 72.416V70.416C234.21 70.416 227.98 71.9875 222.621 75.1637L223.64 76.8843ZM241.274 72.416C248.133 72.416 253.995 73.9179 258.902 76.8801L259.935 75.1679C254.665 71.9861 248.432 70.416 241.274 70.416V72.416ZM258.921 76.8912C263.927 79.7651 267.776 83.8875 270.476 89.2872L272.265 88.3928C269.397 82.6565 265.278 78.2349 259.916 75.1567L258.921 76.8912ZM270.482 89.2994C273.273 94.6953 274.69 101.202 274.69 108.856H276.69C276.69 100.958 275.228 94.1207 272.259 88.3806L270.482 89.2994ZM274.69 108.856C274.69 116.411 273.274 122.922 270.479 128.419L272.262 129.325C275.227 123.494 276.69 116.661 276.69 108.856H274.69ZM270.476 128.425C267.775 133.827 263.922 138.001 258.909 140.972L259.928 142.692C265.283 139.519 269.398 135.053 272.265 129.319L270.476 128.425ZM258.913 140.969C254.005 143.84 248.139 145.296 241.274 145.296V147.296C248.426 147.296 254.655 145.776 259.923 142.695L258.913 140.969ZM241.274 137.792C248.44 137.792 254.204 135.34 258.45 130.387L256.931 129.085C253.112 133.54 247.932 135.792 241.274 135.792V137.792ZM258.456 130.379C262.695 125.333 264.738 118.107 264.738 108.856H262.738C262.738 117.845 260.75 124.539 256.925 129.093L258.456 130.379ZM264.738 108.856C264.738 99.5093 262.647 92.2724 258.298 87.3164L256.795 88.6356C260.702 93.0876 262.738 99.7707 262.738 108.856H264.738ZM258.312 87.3328C254.072 82.2851 248.357 79.776 241.274 79.776V81.776C247.824 81.776 252.957 84.0669 256.781 88.6192L258.312 87.3328ZM241.274 79.776C234.192 79.776 228.477 82.2851 224.237 87.3328L225.768 88.6192C229.592 84.0669 234.725 81.776 241.274 81.776V79.776ZM224.243 87.3252C219.995 92.2809 217.954 99.5141 217.954 108.856H219.954C219.954 99.7659 221.945 93.0791 225.762 88.6268L224.243 87.3252ZM217.954 108.856C217.954 118.107 219.998 125.333 224.237 130.379L225.768 129.093C221.943 124.539 219.954 117.845 219.954 108.856H217.954ZM224.243 130.387C228.486 135.336 234.199 137.792 241.274 137.792V135.792C234.717 135.792 229.583 133.544 225.762 129.085L224.243 130.387ZM299.924 139.24L299.187 139.916L299.195 139.924L299.924 139.24ZM293.444 72.712V71.712H292.444V72.712H293.444ZM305.108 72.712H306.108V71.712H305.108V72.712ZM309.14 132.04L308.377 132.687L308.382 132.693L308.387 132.699L309.14 132.04ZM336.932 130.456L337.664 131.137L337.664 131.137L336.932 130.456ZM342.692 72.712V71.712H341.692V72.712H342.692ZM354.356 72.712H355.356V71.712H354.356V72.712ZM354.356 145V146H355.356V145H354.356ZM342.98 145H341.98V146H342.98V145ZM342.98 128.728V127.728H341.98V128.728H342.98ZM344.852 128.728L345.792 129.068L346.278 127.728H344.852V128.728ZM335.06 141.688L334.497 140.861L334.489 140.867L335.06 141.688ZM319.364 145.296C311.003 145.296 304.824 142.999 300.653 138.556L299.195 139.924C303.856 144.889 310.637 147.296 319.364 147.296V145.296ZM300.661 138.564C296.579 134.12 294.444 127.212 294.444 117.64H292.444C292.444 127.46 294.629 134.952 299.187 139.916L300.661 138.564ZM294.444 117.64V72.712H292.444V117.64H294.444ZM293.444 73.712H305.108V71.712H293.444V73.712ZM304.108 72.712V117.352H306.108V72.712H304.108ZM304.108 117.352C304.108 124.08 305.468 129.258 308.377 132.687L309.903 131.393C307.436 128.486 306.108 123.872 306.108 117.352H304.108ZM308.387 132.699C311.33 136.062 315.832 137.648 321.668 137.648V135.648C316.176 135.648 312.326 134.162 309.893 131.381L308.387 132.699ZM321.668 137.648C328.244 137.648 333.611 135.495 337.664 131.137L336.2 129.775C332.573 133.673 327.764 135.648 321.668 135.648V137.648ZM337.664 131.137C341.713 126.784 343.692 121.001 343.692 113.896H341.692C341.692 120.615 339.831 125.872 336.2 129.775L337.664 131.137ZM343.692 113.896V72.712H341.692V113.896H343.692ZM342.692 73.712H354.356V71.712H342.692V73.712ZM353.356 72.712V145H355.356V72.712H353.356ZM354.356 144H342.98V146H354.356V144ZM343.98 145V128.728H341.98V145H343.98ZM342.98 129.728H344.852V127.728H342.98V129.728ZM343.912 128.388C341.961 133.776 338.82 137.918 334.497 140.861L335.623 142.515C340.324 139.314 343.711 134.816 345.792 129.068L343.912 128.388ZM334.489 140.867C330.261 143.808 325.234 145.296 319.364 145.296V147.296C325.59 147.296 331.027 145.712 335.631 142.509L334.489 140.867ZM386.345 140.248L385.605 140.92L385.613 140.928L386.345 140.248ZM380.729 81.784H381.729V80.784H380.729V81.784ZM366.617 81.784H365.617V82.784H366.617V81.784ZM366.617 72.712V71.712H365.617V72.712H366.617ZM380.729 72.712V73.712H381.729V72.712H380.729ZM380.729 52.984L380.456 52.022L379.729 52.2284V52.984H380.729ZM392.393 49.672H393.393V48.3485L392.12 48.71L392.393 49.672ZM392.393 72.712H391.393V73.712H392.393V72.712ZM413.129 72.712H414.129V71.712H413.129V72.712ZM413.129 81.784V82.784H414.129V81.784H413.129ZM392.393 81.784V80.784H391.393V81.784H392.393ZM395.273 132.76L394.481 133.37L394.494 133.387L394.508 133.403L395.273 132.76ZM409.097 135.928L409.293 136.909L409.324 136.902L409.355 136.894L409.097 135.928ZM412.985 134.632H413.985V133.132L412.601 133.709L412.985 134.632ZM412.985 144.424L413.379 145.343L413.985 145.083V144.424H412.985ZM408.089 145.72L407.941 144.731L407.912 144.735L407.883 144.741L408.089 145.72ZM402.617 145.296C395.706 145.296 390.582 143.341 387.078 139.568L385.613 140.928C389.597 145.219 395.321 147.296 402.617 147.296V145.296ZM387.086 139.576C383.574 135.704 381.729 129.797 381.729 121.672H379.729C379.729 130.059 381.629 136.536 385.605 140.92L387.086 139.576ZM381.729 121.672V81.784H379.729V121.672H381.729ZM380.729 80.784H366.617V82.784H380.729V80.784ZM367.617 81.784V72.712H365.617V81.784H367.617ZM366.617 73.712H380.729V71.712H366.617V73.712ZM381.729 72.712V52.984H379.729V72.712H381.729ZM381.003 53.946L392.667 50.634L392.12 48.71L380.456 52.022L381.003 53.946ZM391.393 49.672V72.712H393.393V49.672H391.393ZM392.393 73.712H413.129V71.712H392.393V73.712ZM412.129 72.712V81.784H414.129V72.712H412.129ZM413.129 80.784H392.393V82.784H413.129V80.784ZM391.393 81.784V120.376H393.393V81.784H391.393ZM391.393 120.376C391.393 126.196 392.354 130.604 394.481 133.37L396.066 132.15C394.353 129.924 393.393 126.076 393.393 120.376H391.393ZM394.508 133.403C396.761 136.085 400.052 137.36 404.201 137.36V135.36C400.479 135.36 397.818 134.235 396.039 132.117L394.508 133.403ZM404.201 137.36C406.076 137.36 407.776 137.212 409.293 136.909L408.901 134.947C407.539 135.22 405.975 135.36 404.201 135.36V137.36ZM409.355 136.894C410.83 136.501 412.17 136.055 413.37 135.555L412.601 133.709C411.497 134.169 410.244 134.587 408.84 134.962L409.355 136.894ZM411.985 134.632V144.424H413.985V134.632H411.985ZM412.591 143.505C411.347 144.038 409.802 144.452 407.941 144.731L408.238 146.709C410.216 146.412 411.936 145.962 413.379 145.343L412.591 143.505ZM407.883 144.741C406.126 145.112 404.371 145.296 402.617 145.296V147.296C404.512 147.296 406.405 147.096 408.295 146.699L407.883 144.741ZM503.863 145H502.863V146H503.863V145ZM503.863 43.48V42.48H502.863V43.48H503.863ZM514.231 43.48L515.145 43.0751L514.882 42.48H514.231V43.48ZM554.983 135.496V136.496H556.519L555.897 135.091L554.983 135.496ZM550.807 135.496L549.893 135.091L549.27 136.496H550.807V135.496ZM591.559 43.48V42.48H590.908L590.645 43.0751L591.559 43.48ZM601.927 43.48H602.927V42.48H601.927V43.48ZM601.927 145V146H602.927V145H601.927ZM590.983 145H589.983V146H590.983V145ZM590.983 58.888V57.888H589.983V58.888H590.983ZM595.303 58.888L596.216 59.2957L596.845 57.888H595.303V58.888ZM556.855 145V146H557.504L557.768 145.408L556.855 145ZM548.935 145L548.022 145.409L548.287 146H548.935V145ZM510.343 58.888V57.888H508.799L509.43 59.297L510.343 58.888ZM514.663 58.888H515.663V57.888H514.663V58.888ZM514.663 145V146H515.663V145H514.663ZM504.863 145V43.48H502.863V145H504.863ZM503.863 44.48H514.231V42.48H503.863V44.48ZM513.317 43.8849L554.069 135.901L555.897 135.091L515.145 43.0751L513.317 43.8849ZM554.983 134.496H550.807V136.496H554.983V134.496ZM551.721 135.901L592.473 43.8849L590.645 43.0751L549.893 135.091L551.721 135.901ZM591.559 44.48H601.927V42.48H591.559V44.48ZM600.927 43.48V145H602.927V43.48H600.927ZM601.927 144H590.983V146H601.927V144ZM591.983 145V58.888H589.983V145H591.983ZM590.983 59.888H595.303V57.888H590.983V59.888ZM594.39 58.4803L555.942 144.592L557.768 145.408L596.216 59.2957L594.39 58.4803ZM556.855 144H548.935V146H556.855V144ZM549.847 144.591L511.255 58.479L509.43 59.297L548.022 145.409L549.847 144.591ZM510.343 59.888H514.663V57.888H510.343V59.888ZM513.663 58.888V145H515.663V58.888H513.663ZM514.663 144H503.863V146H514.663V144ZM631.36 136.504L630.648 137.206L630.653 137.211L631.36 136.504ZM625.888 89.272L626.776 89.7314L626.78 89.7252L625.888 89.272ZM637.984 76.168L638.494 77.0284L638.506 77.0213L637.984 76.168ZM672.544 75.592L672.019 76.443L672.019 76.443L672.544 75.592ZM682.912 87.544L682.005 87.9641L682.008 87.9706L682.912 87.544ZM686.512 110.008V111.008H687.512V110.008H686.512ZM630.496 110.008H629.496V111.008H630.496V110.008ZM630.496 102.664V101.664H629.496V102.664H630.496ZM678.88 102.664L679.488 103.458L681.834 101.664H678.88V102.664ZM676.432 104.536H675.432V106.56L677.04 105.33L676.432 104.536ZM671.248 86.536L670.467 87.1607L670.467 87.1607L671.248 86.536ZM638.992 87.688L639.77 88.3164L639.776 88.3091L638.992 87.688ZM639.568 129.88L638.839 130.564L638.846 130.572L638.854 130.58L639.568 129.88ZM670.528 134.92L670.844 135.869L670.852 135.866L670.859 135.864L670.528 134.92ZM681.472 128.44L682.37 127.999L681.8 126.838L680.82 127.682L681.472 128.44ZM685.504 136.648L686.2 137.366L686.722 136.86L686.402 136.207L685.504 136.648ZM673.408 143.848L673.73 144.795L673.741 144.791L673.408 143.848ZM658.144 145.296C647.017 145.296 638.367 142.096 632.067 135.797L630.653 137.211C637.41 143.968 646.615 147.296 658.144 147.296V145.296ZM632.072 135.802C625.774 129.411 622.568 120.521 622.568 109H620.568C620.568 120.903 623.891 130.349 630.648 137.206L632.072 135.802ZM622.568 109C622.568 101.543 623.984 95.1306 626.776 89.7314L625 88.8126C622.033 94.5494 620.568 101.289 620.568 109H622.568ZM626.78 89.7252C629.579 84.2207 633.482 79.9982 638.494 77.0283L637.474 75.3077C632.118 78.4818 627.958 82.9953 624.997 88.8187L626.78 89.7252ZM638.506 77.0213C643.516 73.9592 649.284 72.416 655.84 72.416V70.416C648.956 70.416 642.82 72.0408 637.463 75.3147L638.506 77.0213ZM655.84 72.416C662.325 72.416 667.7 73.778 672.019 76.443L673.069 74.741C668.364 71.838 662.604 70.416 655.84 70.416V72.416ZM672.019 76.443C676.351 79.116 679.681 82.9437 682.005 87.9641L683.82 87.1239C681.344 81.7763 677.761 77.636 673.069 74.741L672.019 76.443ZM682.008 87.9706C684.331 92.8966 685.512 98.7922 685.512 105.688H687.512C687.512 98.5678 686.293 92.3674 683.817 87.1174L682.008 87.9706ZM685.512 105.688V110.008H687.512V105.688H685.512ZM686.512 109.008H630.496V111.008H686.512V109.008ZM631.496 110.008V102.664H629.496V110.008H631.496ZM630.496 103.664H678.88V101.664H630.496V103.664ZM678.273 101.87L675.825 103.742L677.04 105.33L679.488 103.458L678.273 101.87ZM677.432 104.536C677.432 96.7159 675.673 90.4663 672.029 85.9113L670.467 87.1607C673.735 91.2457 675.432 96.9961 675.432 104.536H677.432ZM672.029 85.9113C668.34 81.2994 662.882 79.056 655.84 79.056V81.056C662.43 81.056 667.245 83.1326 670.467 87.1607L672.029 85.9113ZM655.84 79.056C648.373 79.056 642.453 81.7113 638.209 87.0669L639.776 88.3091C643.596 83.4887 648.908 81.056 655.84 81.056V79.056ZM638.214 87.0597C633.997 92.2808 631.944 99.2953 631.944 107.992H633.944C633.944 99.6007 635.923 93.0792 639.77 88.3163L638.214 87.0597ZM631.944 107.992V109.288H633.944V107.992H631.944ZM631.944 109.288C631.944 118.464 634.19 125.612 638.839 130.564L640.297 129.196C636.114 124.74 633.944 118.16 633.944 109.288H631.944ZM638.854 130.58C643.598 135.425 650.171 137.792 658.432 137.792V135.792C650.566 135.792 644.562 133.551 640.283 129.18L638.854 130.58ZM658.432 137.792C662.85 137.792 666.989 137.154 670.844 135.869L670.212 133.971C666.579 135.182 662.655 135.792 658.432 135.792V137.792ZM670.859 135.864C674.83 134.474 678.585 132.246 682.125 129.198L680.82 127.682C677.447 130.586 673.906 132.678 670.198 133.976L670.859 135.864ZM680.575 128.881L684.607 137.089L686.402 136.207L682.37 127.999L680.575 128.881ZM684.808 135.93C681.76 138.886 677.859 141.217 673.075 142.905L673.741 144.791C678.749 143.023 682.912 140.554 686.2 137.366L684.808 135.93ZM673.086 142.901C668.396 144.496 663.417 145.296 658.144 145.296V147.296C663.623 147.296 668.82 146.464 673.73 144.795L673.086 142.901Z" fill="white"/>
</g>
<path d="M131 172L162.262 102.91H172.846L204.5 172H191.662L183.234 152.596L188.33 156.026H146.876L152.168 152.596L143.74 172H131ZM167.456 116.434L153.638 149.166L151.09 146.128H184.018L181.96 149.166L167.848 116.434H167.456ZM239.486 172.98C235.305 172.98 231.646 171.967 228.51 169.942C225.374 167.851 223.283 165.042 222.238 161.514H223.316V172H211.164V99.872H223.414V132.604H222.238C223.349 129.207 225.472 126.528 228.608 124.568C231.744 122.543 235.37 121.53 239.486 121.53C243.863 121.53 247.685 122.575 250.952 124.666C254.219 126.757 256.767 129.729 258.596 133.584C260.425 137.373 261.34 141.947 261.34 147.304C261.34 152.661 260.425 157.267 258.596 161.122C256.767 164.911 254.186 167.851 250.854 169.942C247.587 171.967 243.798 172.98 239.486 172.98ZM236.056 163.572C239.911 163.572 243.014 162.233 245.366 159.554C247.783 156.875 248.992 152.792 248.992 147.304C248.992 141.816 247.783 137.733 245.366 135.054C243.014 132.31 239.911 130.938 236.056 130.938C232.201 130.938 229.098 132.277 226.746 134.956C224.394 137.635 223.218 141.718 223.218 147.206C223.218 152.694 224.394 156.81 226.746 159.554C229.098 162.233 232.201 163.572 236.056 163.572ZM294.279 172.98C289.183 172.98 284.773 171.935 281.049 169.844C277.325 167.753 274.418 164.781 272.327 160.926C270.302 157.071 269.289 152.498 269.289 147.206C269.289 141.914 270.302 137.373 272.327 133.584C274.418 129.729 277.325 126.757 281.049 124.666C284.773 122.575 289.183 121.53 294.279 121.53C299.375 121.53 303.785 122.575 307.509 124.666C311.299 126.757 314.206 129.729 316.231 133.584C318.322 137.373 319.367 141.914 319.367 147.206C319.367 152.498 318.322 157.071 316.231 160.926C314.206 164.781 311.299 167.753 307.509 169.844C303.785 171.935 299.375 172.98 294.279 172.98ZM294.279 163.572C298.134 163.572 301.205 162.233 303.491 159.554C305.778 156.81 306.921 152.694 306.921 147.206C306.921 141.718 305.778 137.635 303.491 134.956C301.205 132.277 298.134 130.938 294.279 130.938C290.425 130.938 287.354 132.277 285.067 134.956C282.781 137.635 281.637 141.718 281.637 147.206C281.637 152.694 282.781 156.81 285.067 159.554C287.354 162.233 290.425 163.572 294.279 163.572ZM347.768 172.98C341.692 172.98 337.151 171.314 334.146 167.982C331.14 164.65 329.638 159.554 329.638 152.694V122.51H341.888V152.596C341.888 156.255 342.639 158.966 344.142 160.73C345.644 162.429 347.931 163.278 351.002 163.278C354.464 163.278 357.274 162.102 359.43 159.75C361.651 157.398 362.762 154.295 362.762 150.44V122.51H375.012V172H363.056V161.906H364.428C362.99 165.434 360.802 168.178 357.862 170.138C354.987 172.033 351.622 172.98 347.768 172.98ZM409.478 172.98C403.598 172.98 399.156 171.445 396.15 168.374C393.145 165.303 391.642 160.697 391.642 154.556V131.722H382.136V122.51H391.642V109.868L403.892 106.732V122.51H417.122V131.722H403.892V153.772C403.892 157.169 404.546 159.554 405.852 160.926C407.159 162.298 408.956 162.984 411.242 162.984C412.484 162.984 413.529 162.886 414.378 162.69C415.293 162.494 416.175 162.233 417.024 161.906V171.608C415.914 172.065 414.672 172.392 413.3 172.588C411.994 172.849 410.72 172.98 409.478 172.98ZM480.306 172V102.91H491.38L516.762 160.044H513.724L539.106 102.91H550.082V172H538.616V120.746H542.144L518.918 172H511.372L488.146 120.746H491.772V172H480.306ZM588.412 172.98C580.115 172.98 573.614 170.693 568.91 166.12C564.206 161.547 561.854 155.275 561.854 147.304C561.854 142.143 562.867 137.635 564.892 133.78C566.917 129.925 569.727 126.92 573.32 124.764C576.979 122.608 581.225 121.53 586.06 121.53C590.829 121.53 594.815 122.543 598.016 124.568C601.217 126.593 603.635 129.435 605.268 133.094C606.967 136.753 607.816 141.032 607.816 145.932V149.166H571.752V142.698H599.094L597.428 144.07C597.428 139.497 596.448 136.001 594.488 133.584C592.593 131.167 589.817 129.958 586.158 129.958C582.107 129.958 578.971 131.395 576.75 134.27C574.594 137.145 573.516 141.163 573.516 146.324V147.598C573.516 152.955 574.823 156.973 577.436 159.652C580.115 162.265 583.871 163.572 588.706 163.572C591.515 163.572 594.129 163.213 596.546 162.494C599.029 161.71 601.381 160.469 603.602 158.77L607.228 167.002C604.876 168.897 602.067 170.367 598.8 171.412C595.533 172.457 592.071 172.98 588.412 172.98Z" fill="black"/>
<defs>
<filter id="filter0_d_59_42" x="0.59201" y="39.0161" width="695.92" height="127.28" filterUnits="userSpaceOnUse" color-interpolation-filters="sRGB">
<feFlood flood-opacity="0" result="BackgroundImageFix"/>
<feColorMatrix in="SourceAlpha" type="matrix" values="0 0 0 0 0 0 0 0 0 0 0 0 0 0 0 0 0 0 127 0" result="hardAlpha"/>
<feOffset dy="10"/>
<feGaussianBlur stdDeviation="5"/>
<feComposite in2="hardAlpha" operator="out"/>
<feColorMatrix type="matrix" values="0 0 0 0 0.929167 0 0 0 0 0.929167 0 0 0 0 0.929167 0 0 0 0.25 0"/>
<feBlend mode="normal" in2="BackgroundImageFix" result="effect1_dropShadow_59_42"/>
<feBlend mode="normal" in="SourceGraphic" in2="effect1_dropShadow_59_42" result="shape"/>
</filter>
</defs>
</svg>
