<svg width="783" height="64" viewBox="0 0 783 64" fill="none" xmlns="http://www.w3.org/2000/svg">
<path d="M15.3359 48.4766C13.7422 48.4766 12.1484 48.1953 10.5547 47.6328C9.00781 47.0703 7.50781 46.25 6.05469 45.1719C4.60156 44.0469 3.33594 42.5703 2.25781 40.7422C1.17969 38.9141 0.59375 36.7344 0.5 34.2031V8.82031C0.5 7.50781 0.96875 6.42969 1.90625 5.58594C2.89062 4.69531 4.03906 4.25 5.35156 4.25C8.16406 4.48438 9.6875 6.00781 9.92188 8.82031V33.6406C9.96875 34.7656 10.2031 35.7266 10.625 36.5234C11.0469 37.2734 11.5156 37.8828 12.0312 38.3516C12.5469 38.7734 13.0625 39.1016 13.5781 39.3359C14.1406 39.5234 14.7031 39.6172 15.2656 39.6172C15.8281 39.6172 16.3906 39.5234 16.9531 39.3359C17.5156 39.1016 18.0547 38.7734 18.5703 38.3516C19.0859 37.8828 19.5547 37.2734 19.9766 36.5234C20.3984 35.7266 20.6094 34.7656 20.6094 33.6406V8.82031C20.6094 7.50781 21.0781 6.42969 22.0156 5.58594C23 4.69531 24.1484 4.25 25.4609 4.25C28.2734 4.48438 29.8203 6.00781 30.1016 8.82031V33.6406C30.1484 34.7656 30.3828 35.7031 30.8047 36.4531C31.2266 37.25 31.6953 37.8828 32.2109 38.3516C32.7266 38.7734 33.2422 39.1016 33.7578 39.3359C34.3203 39.5234 34.8828 39.6172 35.4453 39.6172C36.0078 39.6172 36.5703 39.5234 37.1328 39.3359C37.6953 39.1016 38.2344 38.7734 38.75 38.3516C39.2656 37.8828 39.7344 37.2734 40.1562 36.5234C40.5781 35.7266 40.7891 34.7656 40.7891 33.6406V8.82031C40.7891 7.50781 41.2578 6.42969 42.1953 5.58594C43.1797 4.69531 44.3281 4.25 45.6406 4.25C48.4531 4.48438 50 6.00781 50.2812 8.82031V34.2031C50.2812 36.7344 49.7188 38.9141 48.5938 40.7422C47.5156 42.5703 46.25 44.0469 44.7969 45.1719C43.3906 46.25 41.8906 47.0703 40.2969 47.6328C38.75 48.1953 37.1562 48.4766 35.5156 48.4766C33.9219 48.4766 32.3281 48.1953 30.7344 47.6328C29.1875 47.0703 27.6875 46.2266 26.2344 45.1016C25.9531 44.9141 25.6953 44.7031 25.4609 44.4688C25.1797 44.7031 24.9219 44.9141 24.6875 45.1016C23.2344 46.2266 21.7109 47.0703 20.1172 47.6328C18.5703 48.1953 16.9766 48.4766 15.3359 48.4766ZM64.3438 4.25C65.6094 4.29687 66.6875 4.76563 67.5781 5.65625C68.4688 6.5 68.9375 7.55469 68.9844 8.82031V14.9375H90.7812C94.0625 14.9844 96.7578 15.9219 98.8672 17.75C101.023 19.5312 102.547 21.5469 103.438 23.7969C104.375 26.0938 104.844 28.4609 104.844 30.8984H104.914V43.1328C104.914 44.4453 104.422 45.5469 103.438 46.4375C102.5 47.2812 101.375 47.7031 100.062 47.7031C97.25 47.4688 95.7031 45.9453 95.4219 43.1328V30.8281C95.4219 29.9375 95.2344 29 94.8594 28.0156C94.5312 27.0312 94.0391 26.1875 93.3828 25.4844C92.7266 24.7344 91.9531 24.3594 91.0625 24.3594H68.9844V43.2734C68.7031 46.0859 67.1562 47.6094 64.3438 47.8438C63.0312 47.8438 61.8828 47.4219 60.8984 46.5781C59.9609 45.6875 59.4922 44.5859 59.4922 43.2734V8.82031C59.5391 7.50781 60.0312 6.42969 60.9688 5.58594C61.9062 4.69531 63.0312 4.25 64.3438 4.25ZM128.328 46.8594C124.203 46.7188 121.086 45.7578 118.977 43.9766C116.867 42.1484 115.344 40.1094 114.406 37.8594C113.469 35.5625 113 33.2422 113 30.8984C113 28.4609 113.445 26.1172 114.336 23.8672C115.273 21.5703 116.797 19.5312 118.906 17.75C121.062 15.9219 123.781 14.9844 127.062 14.9375H149.844C153.125 14.9844 155.82 15.9219 157.93 17.75C160.086 19.5312 161.609 21.5703 162.5 23.8672C163.438 26.1172 163.906 28.4609 163.906 30.8984C163.906 33.2422 163.438 35.5625 162.5 37.8594C161.562 40.1094 160.039 42.1484 157.93 43.9766C155.82 45.7578 152.703 46.7188 148.578 46.8594H128.328ZM126.781 24.3594C125.891 24.3594 125.117 24.7344 124.461 25.4844C123.805 26.1875 123.312 27.0312 122.984 28.0156C122.703 28.9531 122.562 29.8906 122.562 30.8281C122.562 31.8125 122.703 32.7969 122.984 33.7812C123.312 34.7188 123.805 35.5625 124.461 36.3125C125.117 37.0156 125.891 37.3906 126.781 37.4375H150.125C151.016 37.3906 151.789 37.0156 152.445 36.3125C153.102 35.5625 153.57 34.7188 153.852 33.7812C154.18 32.7969 154.344 31.8125 154.344 30.8281C154.344 29.8906 154.18 28.9531 153.852 28.0156C153.57 27.0312 153.102 26.1875 152.445 25.4844C151.789 24.7344 151.016 24.3594 150.125 24.3594H126.781ZM212.844 14.2344C214.109 14.2812 215.188 14.75 216.078 15.6406C216.969 16.4844 217.438 17.5391 217.484 18.8047V43.1328C217.203 45.9453 215.656 47.4688 212.844 47.7031C211.531 47.7031 210.383 47.2812 209.398 46.4375C208.461 45.5469 207.992 44.4453 207.992 43.1328V18.8047C208.039 17.4922 208.531 16.4141 209.469 15.5703C210.406 14.6797 211.531 14.2344 212.844 14.2344ZM206.938 5.09375C206.938 3.78125 207.5 2.65625 208.625 1.71875C209.75 0.78125 211.109 0.3125 212.703 0.3125C214.297 0.3125 215.656 0.78125 216.781 1.71875C217.906 2.65625 218.469 3.78125 218.469 5.09375C218.469 6.45313 217.906 7.60156 216.781 8.53906C215.656 9.47656 214.297 9.94531 212.703 9.94531C211.109 9.94531 209.75 9.47656 208.625 8.53906C207.5 7.60156 206.938 6.45313 206.938 5.09375ZM270.711 19.0156C270.711 20.1875 270.242 21.1719 269.305 21.9688C268.414 22.7188 267.312 23.0938 266 23.0938H236.258C235.648 23.0938 235.156 23.2109 234.781 23.4453C234.406 23.6797 234.125 23.9375 233.938 24.2188C233.75 24.4531 233.656 24.6641 233.656 24.8516C233.656 25.0859 233.75 25.3438 233.938 25.625C234.125 25.8594 234.406 26.0938 234.781 26.3281C235.156 26.5156 235.648 26.6328 236.258 26.6797H259.25C262.203 26.7266 264.641 27.3125 266.562 28.4375C268.484 29.5156 269.844 30.8047 270.641 32.3047C271.484 33.7578 271.906 35.2344 271.906 36.7344C271.906 38.1875 271.484 39.6641 270.641 41.1641C269.797 42.6172 268.414 43.9062 266.492 45.0312C264.617 46.1094 262.203 46.6484 259.25 46.6484C258.734 46.6953 258.359 46.7188 258.125 46.7188H230.844C229.531 46.7188 228.406 46.3438 227.469 45.5938C226.578 44.7969 226.133 43.8359 226.133 42.7109C226.133 41.5391 226.602 40.5547 227.539 39.7578C228.43 39.0078 229.531 38.6328 230.844 38.6328H259.812C260.516 38.6797 261.078 38.5859 261.5 38.3516C261.969 38.1172 262.32 37.8594 262.555 37.5781C262.789 37.2969 262.906 37.0156 262.906 36.7344C262.906 36.5938 262.789 36.3594 262.555 36.0312C262.32 35.6562 261.969 35.375 261.5 35.1875C261.078 34.9531 260.516 34.8125 259.812 34.7656H236.75C234.031 34.7188 231.781 34.1562 230 33.0781C228.219 31.9531 226.953 30.6641 226.203 29.2109C225.453 27.7578 225.078 26.3047 225.078 24.8516C225.078 23.3984 225.453 21.9688 226.203 20.5625C227 19.1094 228.266 17.8672 230 16.8359C231.781 15.7578 234.031 15.1719 236.75 15.0781C237.219 15.0312 237.57 15.0078 237.805 15.0078H266C267.312 15.0078 268.414 15.4062 269.305 16.2031C270.242 16.9531 270.711 17.8906 270.711 19.0156ZM330.969 4.25C332.281 4.25 333.406 4.69531 334.344 5.58594C335.281 6.42969 335.773 7.50781 335.82 8.82031V14.9375H359.727C361.039 14.9375 362.164 15.3828 363.102 16.2734C363.992 17.2109 364.438 18.3359 364.438 19.6484C364.438 20.9609 363.969 22.0859 363.031 23.0234C362.141 23.9141 361.039 24.3594 359.727 24.3594H335.82V25.7656C335.773 27.6875 335.891 29.4688 336.172 31.1094C336.5 32.7031 337.25 34.1328 338.422 35.3984C339.594 36.6641 341.07 37.3438 342.852 37.4375H360.008C361.32 37.4844 362.398 37.9766 363.242 38.9141C364.133 39.8516 364.578 40.9766 364.578 42.2891C364.531 43.5547 364.062 44.6328 363.172 45.5234C362.328 46.3672 361.273 46.8125 360.008 46.8594H340.461C337.18 46.6719 334.461 45.5703 332.305 43.5547C330.195 41.4922 328.672 38.9844 327.734 36.0312C326.844 33.0781 326.375 29.9375 326.328 26.6094V24.3594H318.242C316.93 24.3594 315.828 23.8906 314.938 22.9531C314 22.0625 313.531 20.9609 313.531 19.6484C313.531 18.3359 313.977 17.2344 314.867 16.3438C315.805 15.4062 316.93 14.9375 318.242 14.9375H326.328V8.82031C326.375 7.55469 326.844 6.5 327.734 5.65625C328.625 4.76563 329.703 4.29687 330.969 4.25ZM376.18 4.25C377.445 4.29687 378.523 4.76563 379.414 5.65625C380.305 6.5 380.773 7.55469 380.82 8.82031V14.9375H402.617C405.898 14.9844 408.594 15.9219 410.703 17.75C412.859 19.5312 414.383 21.5469 415.273 23.7969C416.211 26.0938 416.68 28.4609 416.68 30.8984H416.75V43.1328C416.75 44.4453 416.258 45.5469 415.273 46.4375C414.336 47.2812 413.211 47.7031 411.898 47.7031C409.086 47.4688 407.539 45.9453 407.258 43.1328V30.8281C407.258 29.9375 407.07 29 406.695 28.0156C406.367 27.0312 405.875 26.1875 405.219 25.4844C404.562 24.7344 403.789 24.3594 402.898 24.3594H380.82V43.2734C380.539 46.0859 378.992 47.6094 376.18 47.8438C374.867 47.8438 373.719 47.4219 372.734 46.5781C371.797 45.6875 371.328 44.5859 371.328 43.2734V8.82031C371.375 7.50781 371.867 6.42969 372.805 5.58594C373.742 4.69531 374.867 4.25 376.18 4.25ZM430.461 14.2344C431.727 14.2812 432.805 14.75 433.695 15.6406C434.586 16.4844 435.055 17.5391 435.102 18.8047V43.1328C434.82 45.9453 433.273 47.4688 430.461 47.7031C429.148 47.7031 428 47.2812 427.016 46.4375C426.078 45.5469 425.609 44.4453 425.609 43.1328V18.8047C425.656 17.4922 426.148 16.4141 427.086 15.5703C428.023 14.6797 429.148 14.2344 430.461 14.2344ZM424.555 5.09375C424.555 3.78125 425.117 2.65625 426.242 1.71875C427.367 0.78125 428.727 0.3125 430.32 0.3125C431.914 0.3125 433.273 0.78125 434.398 1.71875C435.523 2.65625 436.086 3.78125 436.086 5.09375C436.086 6.45313 435.523 7.60156 434.398 8.53906C433.273 9.47656 431.914 9.94531 430.32 9.94531C428.727 9.94531 427.367 9.47656 426.242 8.53906C425.117 7.60156 424.555 6.45313 424.555 5.09375ZM488.328 19.0156C488.328 20.1875 487.859 21.1719 486.922 21.9688C486.031 22.7188 484.93 23.0938 483.617 23.0938H453.875C453.266 23.0938 452.773 23.2109 452.398 23.4453C452.023 23.6797 451.742 23.9375 451.555 24.2188C451.367 24.4531 451.273 24.6641 451.273 24.8516C451.273 25.0859 451.367 25.3438 451.555 25.625C451.742 25.8594 452.023 26.0938 452.398 26.3281C452.773 26.5156 453.266 26.6328 453.875 26.6797H476.867C479.82 26.7266 482.258 27.3125 484.18 28.4375C486.102 29.5156 487.461 30.8047 488.258 32.3047C489.102 33.7578 489.523 35.2344 489.523 36.7344C489.523 38.1875 489.102 39.6641 488.258 41.1641C487.414 42.6172 486.031 43.9062 484.109 45.0312C482.234 46.1094 479.82 46.6484 476.867 46.6484C476.352 46.6953 475.977 46.7188 475.742 46.7188H448.461C447.148 46.7188 446.023 46.3438 445.086 45.5938C444.195 44.7969 443.75 43.8359 443.75 42.7109C443.75 41.5391 444.219 40.5547 445.156 39.7578C446.047 39.0078 447.148 38.6328 448.461 38.6328H477.43C478.133 38.6797 478.695 38.5859 479.117 38.3516C479.586 38.1172 479.938 37.8594 480.172 37.5781C480.406 37.2969 480.523 37.0156 480.523 36.7344C480.523 36.5938 480.406 36.3594 480.172 36.0312C479.938 35.6562 479.586 35.375 479.117 35.1875C478.695 34.9531 478.133 34.8125 477.43 34.7656H454.367C451.648 34.7188 449.398 34.1562 447.617 33.0781C445.836 31.9531 444.57 30.6641 443.82 29.2109C443.07 27.7578 442.695 26.3047 442.695 24.8516C442.695 23.3984 443.07 21.9688 443.82 20.5625C444.617 19.1094 445.883 17.8672 447.617 16.8359C449.398 15.7578 451.648 15.1719 454.367 15.0781C454.836 15.0312 455.188 15.0078 455.422 15.0078H483.617C484.93 15.0078 486.031 15.4062 486.922 16.2031C487.859 16.9531 488.328 17.8906 488.328 19.0156ZM572.773 26.1875C572.773 25.0156 572.164 24.4062 570.945 24.3594H546.336C545.445 24.4062 544.672 24.8047 544.016 25.5547C543.359 26.2578 542.867 27.1016 542.539 28.0859C542.258 29.0234 542.117 29.9844 542.117 30.9688C542.117 31.9062 542.258 32.8672 542.539 33.8516C542.867 34.7891 543.359 35.6328 544.016 36.3828C544.672 37.0859 545.445 37.4375 546.336 37.4375H564.336C565.648 37.4375 566.75 37.9062 567.641 38.8438C568.578 39.7344 569.047 40.8359 569.047 42.1484C569.047 43.4609 568.578 44.5625 567.641 45.4531C566.75 46.3906 565.648 46.8594 564.336 46.8594H546.617C543.336 46.8125 540.617 45.8984 538.461 44.1172C536.352 42.2891 534.828 40.25 533.891 38C533 35.7031 532.555 33.3359 532.555 30.8984C532.555 28.5547 533.023 26.2578 533.961 24.0078C534.898 21.7109 536.422 19.6719 538.531 17.8906C540.641 16.0625 543.758 15.0781 547.883 14.9375H577.414C578.727 14.9375 579.852 15.3828 580.789 16.2734C581.727 17.1172 582.219 18.1953 582.266 19.5078V41.7266C582.266 45.4766 581.75 49.0156 580.719 52.3438C579.781 55.2969 578.234 57.7812 576.078 59.7969C573.969 61.8594 571.273 62.9844 567.992 63.1719H543.664C542.398 63.125 541.32 62.6562 540.43 61.7656C539.586 60.9219 539.141 59.8672 539.094 58.6016C539.094 57.2891 539.516 56.1641 540.359 55.2266C541.25 54.2891 542.352 53.7969 543.664 53.75H565.602C567.383 53.6562 568.859 52.9766 570.031 51.7109C571.203 50.4453 571.953 48.9688 572.281 47.2812C572.609 45.5938 572.773 43.4141 572.773 40.7422V26.1875ZM614.188 48.0547C611.75 48.0547 609.336 47.7734 606.945 47.2109C604.602 46.6484 602.352 45.8281 600.195 44.75C598.039 43.625 596.141 42.1484 594.5 40.3203C592.859 38.4922 591.969 36.3125 591.828 33.7812V30.8281V18.8047C591.828 17.4922 592.297 16.4141 593.234 15.5703C594.219 14.6797 595.367 14.2344 596.68 14.2344C599.492 14.4688 601.016 15.9922 601.25 18.8047V21.8984V31.6016C601.344 33.0547 601.883 34.2734 602.867 35.2578C603.898 36.1953 605.023 36.9453 606.242 37.5078C607.508 38.0703 608.797 38.4922 610.109 38.7734C611.469 39.0547 612.828 39.1953 614.188 39.1953C615.547 39.1953 616.883 39.0547 618.195 38.7734C619.555 38.4922 620.844 38.0703 622.062 37.5078C623.328 36.9453 624.453 36.1953 625.438 35.2578C626.469 34.2734 627.031 33.0547 627.125 31.6016V21.8984V18.8047C627.125 17.4922 627.594 16.4141 628.531 15.5703C629.516 14.6797 630.664 14.2344 631.977 14.2344C634.789 14.4688 636.336 15.9922 636.617 18.8047V30.8281V33.7812C636.477 36.3125 635.562 38.4922 633.875 40.3203C632.234 42.1484 630.336 43.625 628.18 44.75C626.023 45.8281 623.75 46.6484 621.359 47.2109C619.016 47.7734 616.625 48.0547 614.188 48.0547ZM650.328 14.0938C651.641 14.0938 652.766 14.5391 653.703 15.4297C654.641 16.2734 655.133 17.3516 655.18 18.6641V25.7656C655.133 27.6875 655.25 29.4688 655.531 31.1094C655.859 32.7031 656.609 34.1328 657.781 35.3984C658.953 36.6641 660.43 37.3438 662.211 37.4375H680.984V18.8047C680.984 17.4922 681.453 16.4141 682.391 15.5703C683.375 14.6797 684.523 14.2344 685.836 14.2344C688.648 14.4688 690.195 15.9922 690.477 18.8047V41.7266C690.477 45.4766 689.961 49.0156 688.93 52.3438C687.992 55.2969 686.445 57.7812 684.289 59.7969C682.18 61.8594 679.484 62.9844 676.203 63.1719H651.875C650.609 63.125 649.531 62.6562 648.641 61.7656C647.797 60.9219 647.352 59.8672 647.305 58.6016C647.305 57.2891 647.727 56.1641 648.57 55.2266C649.461 54.2891 650.562 53.7969 651.875 53.75H673.812C675.594 53.6562 677.07 52.9766 678.242 51.7109C679.414 50.4453 680.164 48.9688 680.492 47.2812C680.539 47.1406 680.562 47 680.562 46.8594H659.82C656.539 46.6719 653.82 45.5703 651.664 43.5547C649.555 41.4922 648.031 38.9844 647.094 36.0312C646.203 33.0781 645.734 29.9375 645.688 26.6094V18.6641C645.734 17.3984 646.203 16.3438 647.094 15.5C647.984 14.6094 649.062 14.1406 650.328 14.0938ZM735.617 10.0859C735.617 8.77344 736.062 7.67187 736.953 6.78125C737.891 5.84375 739.016 5.375 740.328 5.375H767.469C767.75 5.375 768.031 5.39844 768.312 5.44531H768.734C772.016 5.53906 774.711 6.28906 776.82 7.69531C778.93 9.05469 780.453 10.625 781.391 12.4062C782.328 14.1875 782.797 15.9922 782.797 17.8203C782.797 19.6484 782.328 21.4531 781.391 23.2344C780.5 25.0156 778.977 26.6094 776.82 28.0156C774.711 29.375 772.016 29.9844 768.734 29.8438H761.281C760.391 29.8906 759.852 30.0781 759.664 30.4062C759.523 30.6875 759.453 30.9922 759.453 31.3203V31.6016C759.172 34.3203 757.602 35.7969 754.742 36.0312C753.383 36.0312 752.211 35.6094 751.227 34.7656C750.242 33.875 749.75 32.8203 749.75 31.6016V27.9453C749.844 25.9297 750.547 24.1953 751.859 22.7422C753.172 21.2891 755.469 20.5156 758.75 20.4219H769.156C770.047 20.4688 770.773 20.3281 771.336 20C771.945 19.6719 772.391 19.3203 772.672 18.9453C772.953 18.5234 773.094 18.1016 773.094 17.6797C773.094 17.2578 772.953 16.8594 772.672 16.4844C772.391 16.0625 771.945 15.6875 771.336 15.3594C770.773 15.0312 770.047 14.8438 769.156 14.7969H740.328C739.016 14.7969 737.914 14.3281 737.023 13.3906C736.086 12.5 735.617 11.3984 735.617 10.0859ZM760.438 42.9219C760.438 44.2344 759.875 45.3594 758.75 46.2969C757.625 47.2344 756.266 47.7031 754.672 47.7031C753.078 47.7031 751.719 47.2344 750.594 46.2969C749.469 45.3594 748.906 44.2344 748.906 42.9219C748.906 41.5625 749.469 40.4141 750.594 39.4766C751.719 38.5391 753.078 38.0703 754.672 38.0703C756.266 38.0703 757.625 38.5391 758.75 39.4766C759.875 40.4141 760.438 41.5625 760.438 42.9219Z" fill="black"/>
</svg>
